PathFileType	4	(X/Y/Z)	..\data\2014007\dynamic\2014007_C4_04.trc
DataRate	CameraRate	NumFrames	NumMarkers	Units	OrigDataRate	OrigDataStartFrame	OrigNumFrames
100.000000	100.000000	4	52	mm	100.000000	117	188
Frame#	Time	L_IAS			L_IPS			R_IPS			R_IAS			L_FTC			L_FLE			L_FME			L_FAX			L_TTC			L_FAL			L_TAM			L_FCC			L_FM1			L_FM2			L_FM5			R_FTC			R_FLE			R_FME			R_FAX			R_TTC			R_FAL			R_TAM			R_FCC			R_FM1			R_FM2			R_FM5			CV7			TV10			SXS			SJN			L_SIA			L_SRS			L_SAA			L_SAE			L_HLE			L_HME			L_UOA			L_RSP			L_UHE			L_HM2			L_HM5			R_SIA			R_SRS			R_SAA			R_SAE			R_HLE			R_HME			R_UOA			R_RSP			R_UHE			R_HM2			R_HM5			
		X1	Y1	Z1	X2	Y2	Z2	X3	Y3	Z3	X4	Y4	Z4	X5	Y5	Z5	X6	Y6	Z6	X7	Y7	Z7	X8	Y8	Z8	X9	Y9	Z9	X10	Y10	Z10	X11	Y11	Z11	X12	Y12	Z12	X13	Y13	Z13	X14	Y14	Z14	X15	Y15	Z15	X16	Y16	Z16	X17	Y17	Z17	X18	Y18	Z18	X19	Y19	Z19	X20	Y20	Z20	X21	Y21	Z21	X22	Y22	Z22	X23	Y23	Z23	X24	Y24	Z24	X25	Y25	Z25	X26	Y26	Z26	X27	Y27	Z27	X28	Y28	Z28	X29	Y29	Z29	X30	Y30	Z30	X31	Y31	Z31	X32	Y32	Z32	X33	Y33	Z33	X34	Y34	Z34	X35	Y35	Z35	X36	Y36	Z36	X37	Y37	Z37	X38	Y38	Z38	X39	Y39	Z39	X40	Y40	Z40	X41	Y41	Z41	X42	Y42	Z42	X43	Y43	Z43	X44	Y44	Z44	X45	Y45	Z45	X46	Y46	Z46	X47	Y47	Z47	X48	Y48	Z48	X49	Y49	Z49	X50	Y50	Z50	X51	Y51	Z51	X52	Y52	Z52	

118	1.17	70.57456207275391	904.6069335937502	156.3102111816407	-134.1160278320313	978.642028808594	236.1507720947266	-132.7296295166016	983.0622558593752	317.3182373046876	52.98166275024411	923.8463134765627	412.6685180664064	7.371248245239248	878.094177246094	92.36045074462892	-78.1078796386719	455.7291870117189	161.4839324951172	-93.09626770019536	448.9997558593751	285.8172302246094	-111.513916015625	397.3441162109376	161.6953735351563	-67.48938751220707	378.9207763671876	223.1820373535157	-211.3250885009766	69.04973602294923	207.0411376953125	-189.1963043212891	85.17993927001955	287.0860900878907	-263.493377685547	35.36671447753907	256.2956237792969	-76.59120941162114	25.83039855957032	277.7457275390626	-70.50346374511723	40.53224182128907	224.5173950195313	-111.5481643676758	25.26651573181153	177.1847686767578	-8.086299896240295	869.2068481445315	472.5056762695314	146.3063201904297	479.0886535644532	412.8115234375001	134.1325531005859	471.9871215820314	279.9314270019532	145.7203521728515	413.0285949707032	414.223846435547	205.2333984375	428.2003173828126	360.1108398437501	252.9081268310547	74.46787261962892	381.7207031250001	261.9663391113281	99.6675720214844	297.9114990234376	215.9132690429688	25.97653007507325	326.5362854003907	394.6824035644532	75.3646697998047	311.6820678710939	390.9996643066407	91.90388488769533	357.8228149414064	359.3228759765625	68.43734741210939	400.8431091308595	-81.1741104125977	1425.335327148438	254.7986755371094	-135.2518463134766	1188.519409179688	266.1686096191407	43.10210800170896	1340.985229492188	259.2007141113282	111.1024856567383	1168.316040039063	270.2464599609376	-137.952621459961	1203.910400390625	162.2064208984375	-118.3378829956055	1344.625244140625	166.8727874755859	-81.49944305419925	1345.490478515625	97.99734497070314	-27.93579292297365	1348.9111328125	73.36769866943361	39.5973014831543	1033.486694335938	3.760644435882574	13.86945915222167	1010.197143554688	79.46012115478517	13.51954460144043	1000.324279785156	30.08624458312989	234.0138244628907	867.1278076171877	58.67300796508793	202.6843719482422	846.6671142578127	-8.222036361694313	306.7752990722657	811.4349365234377	54.8190422058106	238.5388336181641	769.669372558594	-6.585831165313693	-156.7896575927735	1215.169311523438	356.4284057617188	-128.149383544922	1344.9208984375	353.3450317382813	-84.14894104003913	1366.394653320313	421.902313232422	-41.60162734985358	1369.867431640625	444.8236083984376	-77.5001983642579	1057.426513671875	537.6623535156251	-112.4108428955079	1046.122802734375	459.7009887695314	-117.1591033935548	1031.125610351563	511.6846313476564	31.52606201171869	816.829040527344	515.5368041992189	-16.16099548339851	820.0079345703127	578.0330200195314	58.41780090332026	737.1241455078126	521.4277343750001	-15.30341053009041	743.7812500000001	587.7797241210939	
119	1.18	79.38573455810547	903.1281738281252	156.4971160888672	-125.0517730712891	977.0152587890627	237.2965087890625	-123.5257263183594	981.2251586914065	318.4325256347657	62.54959869384762	922.1044921875002	413.0489196777345	15.82709407806396	876.867126464844	92.75615692138673	-73.00807189941409	455.1578674316407	161.554443359375	-87.32093811035161	448.2992248535157	285.9186096191407	-107.0230789184571	397.0399780273439	161.7915649414063	-62.70482254028325	378.1476440429688	223.0971069335938	-211.0704498291016	70.0250701904297	206.9981536865235	-188.3698272705079	85.71663665771486	287.1762390136719	-263.1699829101564	36.73802185058594	256.4761962890625	-76.59793090820317	25.86273765563966	277.7122802734376	-70.45062255859379	40.5285758972168	224.5043334960938	-111.618995666504	25.40097999572755	177.3225555419922	1.580139160156192	867.0156250000002	472.8194274902345	156.3556823730468	477.706268310547	412.2056579589845	142.7360229492188	470.3259582519532	279.3969116210938	156.3849334716797	411.6285095214845	413.7395629882814	215.3535308837891	427.562469482422	358.9056701660157	268.0589599609375	74.55855560302736	381.6524658203126	276.6177673339844	99.65493011474612	297.7373962402345	231.5884704589844	25.31614112854005	326.7706604003907	409.9002380371094	76.10475158691408	311.7155761718751	405.7211608886719	93.43623352050783	357.3877868652345	374.2763061523438	70.29234313964845	400.8647766113283	-72.32453918457036	1423.664916992188	255.845932006836	-126.2426147460938	1186.821655273438	267.3067626953126	52.04722213745116	1339.351318359375	260.0994873046876	120.0948944091797	1166.647705078125	271.0260925292969	-129.1936950683594	1202.18798828125	163.458740234375	-109.5933990478516	1342.925903320313	168.0223388671875	-72.85383605957034	1343.715454101563	99.08456420898439	-19.39515876770021	1347.152099609375	74.37986755371095	48.65168380737306	1031.903686523438	4.589461803436286	22.95022964477538	1008.596618652344	80.18604278564455	22.66040802001953	998.6099853515627	30.94778442382814	244.1168212890626	866.8122558593752	59.6947288513184	212.9452819824219	846.0620117187502	-7.17149972915647	317.2837829589844	811.706726074219	55.8987426757813	249.3763732910157	769.3217773437502	-5.408981800079316	-147.6988677978516	1213.422729492188	357.4942932128907	-119.145980834961	1343.213256835938	354.4069213867188	-75.0968093872071	1364.6953125	422.9324340820314	-32.52947998046881	1368.1845703125	445.8218688964845	-68.28283691406259	1055.676025390625	538.5333862304689	-103.2279052734376	1044.388916015625	460.6146240234376	-107.9294967651368	1029.410522460938	512.5404663085939	40.56934738159174	815.0085449218752	516.1286010742189	-6.895183086395337	818.260192871094	578.8463745117189	67.18356323242183	735.1819458007814	521.8137207031251	-6.137533664703443	742.0270385742189	588.5499267578126	
120	1.19	88.22496795654297	901.5491943359377	156.7221221923828	-115.8395538330079	975.4174804687502	238.4520416259766	-114.1807556152344	979.4185180664065	319.5483093261719	72.24542999267574	920.347106933594	413.5110168457032	24.40455436706543	875.623718261719	93.19199371337892	-67.72917938232425	454.6089477539064	161.6368865966797	-81.3223037719727	447.5970153808595	286.0237121582032	-102.3341064453125	396.7684631347657	161.8777313232422	-57.74572753906254	377.3905639648438	223.0080871582032	-210.788070678711	71.15386962890626	206.8549957275391	-187.5078582763672	86.35840606689455	287.2096862792969	-262.8555908203126	38.26401138305665	256.5716552734375	-76.57042694091801	25.92146492004395	277.6582641601563	-70.36453247070317	40.54431533813477	224.4776763916016	-111.6458282470704	25.54152297973634	177.4575958251953	11.32448768615717	864.8530273437502	473.1721191406251	166.9481964111328	476.5693359375001	411.7618408203126	151.9174499511719	468.9369506835939	279.0960083007813	167.2940826416015	410.3459777832032	413.4028625488282	225.6298065185547	426.7484436035157	357.8638000488282	280.7914733886719	74.2489471435547	381.4238281250001	288.9547729492188	99.1728439331055	297.3865661621095	244.5522918701172	24.48779106140137	326.8711853027345	422.6394042968751	75.84030914306642	311.5575256347657	418.0277709960938	93.9070510864258	356.7771911621095	386.7459716796876	71.22369384765626	400.6489562988283	-63.4210586547852	1422.002807617188	256.9837341308594	-117.1260604858399	1185.117065429688	268.5003356933594	61.06145095825194	1337.748779296875	261.0861511230469	129.1904907226562	1165.014892578125	271.8605957031251	-120.3652877807618	1200.48046875	164.7980041503906	-100.7843170166016	1341.237060546875	169.2682189941407	-64.14923095703128	1341.967407226563	100.2642135620117	-10.81009006500245	1345.427124023438	75.48642730712892	57.47985839843751	1030.296020507813	5.50209331512452	31.78566932678222	1006.957763671875	81.00599670410158	31.56912231445313	996.896423339844	31.90346908569337	253.8201599121094	866.2241210937502	60.70835876464848	222.7375946044922	845.2197875976565	-6.119949817657445	327.3251342773438	811.6123046875002	56.92987823486334	259.6455078125001	768.7020263671877	-4.257816791534393	-138.5133056640626	1211.63427734375	358.5972595214844	-110.0812301635743	1341.47314453125	355.5377807617188	-66.00605773925788	1362.963745117188	424.0402832031251	-23.42483520507818	1366.481811523438	446.9075012207032	-58.96471405029305	1053.89697265625	539.4734497070314	-93.96772003173835	1042.617919921875	461.6014099121095	-98.62281799316415	1027.656127929688	513.4683837890626	49.76676940917964	813.2028808593752	516.8187866210939	2.449129104614187	816.4895019531252	579.7236938476564	76.17710113525385	733.2965698242189	522.3142089843751	3.200021028518605	740.2626953125001	589.3754882812501	
121	1.2	97.11679077148439	899.8868408203127	157.0032653808594	-106.4674377441407	973.868103027344	239.615951538086	-104.6804199218751	977.6731567382815	320.6684265136719	82.08113098144527	918.6037597656252	414.0698242187501	33.12714004516601	874.3696899414065	93.67796325683595	-62.25153350830082	454.0913696289064	161.7485046386719	-75.11495971679692	446.915985107422	286.1516723632813	-97.43379211425786	396.5415954589845	161.9661254882813	-52.6287117004395	376.6482849121094	222.9362945556641	-210.4563293457032	72.44210815429689	206.6041107177735	-186.6174774169922	87.12383270263673	287.1741943359376	-262.5598449707032	39.96171188354493	256.55859375	-76.49803924560551	26.00917434692384	277.5822448730469	-70.23431396484379	40.58043289184571	224.4314727783204	-111.6209106445313	25.67880439758301	177.5828247070313	21.17049217224116	862.7686157226565	473.5813903808595	178.0109558105468	475.6699218750001	411.4622497558595	161.6495971679688	467.8367919921876	279.0069885253907	178.3936614990234	409.185272216797	413.196990966797	236.0433654785156	425.7727050781251	356.9913330078126	291.234130859375	73.51116180419923	381.0679016113282	299.1309204101562	98.17043304443362	296.8867797851564	254.9350738525391	23.46553611755371	326.8595581054689	433.0443115234376	74.49932861328126	311.2573852539064	428.0740051269532	93.23169708251955	356.0581054687501	396.8784484863282	71.14830017089845	400.2403869628908	-54.45827102661137	1420.370483398438	258.2131652832032	-107.8934402465821	1183.428588867188	269.7460632324219	70.15055084228514	1336.204223632813	262.1579895019532	138.4026641845703	1163.449340820313	272.7463378906251	-111.4574050903321	1198.810791015625	166.2186431884766	-91.90336608886722	1339.58251953125	170.6073913574219	-55.37823867797854	1340.272094726563	101.532958984375	-2.169964790344248	1343.760864257813	76.68141174316408	66.07888031005861	1028.684326171875	6.493336677551279	40.37654113769531	1005.296875	81.92598724365236	40.24612045288086	995.203308105469	32.9508399963379	263.1109008789063	865.3666992187502	61.70784759521489	232.0499267578126	844.1467285156252	-5.073919773101779	336.8911743164063	811.151062011719	57.90926742553717	269.3284606933594	767.8099365234376	-3.137208700180022	-129.2221069335938	1209.82421875	359.7340698242188	-100.9470367431641	1339.720581054688	356.7362365722657	-56.86783981323249	1361.218505859375	425.2250976562501	-14.2785844802857	1364.7783203125	448.0793762207032	-49.54165267944344	1052.1083984375	540.4750366210939	-84.62404632568366	1040.829956054688	462.6517639160157	-89.23342132568366	1025.8828125	514.4602661132814	59.11500930786128	811.4260864257815	517.6102294921876	11.86005020141595	814.7114868164065	580.6633300781251	85.39495849609369	731.4804077148439	522.9406127929689	12.69989490509026	738.5051269531251	590.2571411132814	
